<?xml version="1.0" encoding="UTF-8"?>
<svg width="227px" height="21px" viewBox="0 0 227 21" version="1.1" xmlns="http://www.w3.org/2000/svg" xmlns:xlink="http://www.w3.org/1999/xlink">
    <!-- Generator: Sketch 54 (76480) - https://sketchapp.com -->
    <title>Logo V1</title>
    <desc>Created with Sketch.</desc>
    <g id="Current" stroke="none" stroke-width="1" fill="none" fill-rule="evenodd">
        <g id="04-/-15---Branding" transform="translate(-139.000000, -130.000000)" fill="#000000">
            <g id="Logo-/-V1" transform="translate(139.000000, 123.000000)">
                <path d="M10.7522183,15.4244749 C10.3269286,17.6643193 9.91185327,19.9056749 9.47286702,22.1438193 C9.20241806,23.5221415 8.92291544,24.9002749 8.57910866,26.2670749 C8.52292956,26.4890193 8.13780095,26.7766971 7.8576019,26.8171193 C7.12727364,26.9223304 6.37048085,26.9066526 5.62413458,26.940086 C5.17191606,26.960486 4.91446722,26.8038971 4.81394843,26.4297082 C4.37101571,24.7780638 3.88768976,23.1335971 3.4610072,21.4793082 C2.59858841,18.1348415 1.76193773,14.7860304 0.91832269,11.4383526 C0.614212701,10.2317304 0.321245675,9.02321931 0.0213142968,7.81584153 C-0.0613293337,7.48264153 0.0960649962,7.21441931 0.498604477,7.19647487 C1.64447234,7.14509709 2.79591169,7.1126082 3.94154741,7.14679709 C4.44901644,7.1619082 4.54257089,7.58199709 4.60223216,7.93125264 C4.96391411,10.0462415 5.28984574,12.1657638 5.6886709,14.2760304 C5.96469134,15.7359526 6.33844483,17.1835971 6.77278818,18.6391749 C6.93203967,17.7808638 7.09105902,16.9223638 7.25031051,16.0640526 C7.59434944,14.2116193 7.96044215,12.3616415 8.27221293,10.5056193 C8.40337487,9.7255082 8.41776786,8.93236376 8.48903638,8.14526376 C8.54196545,7.5580082 8.76273537,7.31377487 9.46334907,7.27203042 C10.2849103,7.22348598 11.1148288,7.24501931 11.9401044,7.2639082 C12.4875024,7.27637487 12.6980579,7.61316376 12.7802372,7.98791931 C13.1005974,9.44255264 13.4311719,10.8964304 13.7011566,12.357486 C14.070035,14.3542304 14.3862166,16.357586 14.7286305,18.3575415 C14.7467378,18.4642638 14.7975776,18.5672082 14.9324538,18.6769526 C15.0861338,18.0386971 15.2806714,17.404786 15.3862973,16.7612415 C15.7633009,14.4649193 16.1119827,12.1657638 16.4671646,9.86717487 C16.5579333,9.27991931 16.6129517,8.68869709 16.7211313,8.10389709 C16.8434717,7.44127487 17.2086358,7.19458598 18.0227684,7.19213042 C18.8106687,7.19005264 19.5981046,7.20648598 20.3860048,7.20799709 C21.1862088,7.20969709 21.3937464,7.4135082 21.2344949,8.03986376 C20.9405993,9.19756376 20.632775,10.3529971 20.366969,11.5148526 C19.4397817,15.5693526 18.5258267,19.6257415 17.6128003,23.6823193 C17.4238343,24.5211749 17.258547,25.3636193 17.0844382,26.2045526 C17.0062054,26.5815749 16.7325064,26.7880304 16.2672877,26.8105082 C15.5418345,26.8454526 14.815917,26.8837971 14.0895352,26.894186 C13.292117,26.9055193 13.0142394,26.686786 12.8979348,26.0307749 C12.6010213,24.3575971 12.3050364,22.6844193 11.9990692,21.0123749 C11.6810305,19.2732749 11.3523132,17.5354971 11.0256851,15.7975304 C11.0020063,15.6722971 10.9555773,15.5497082 10.9195948,15.425986 C10.8636479,15.4254193 10.8079331,15.4248526 10.7522183,15.4244749 Z M51.7673003,15.5650271 C51.5024228,16.840216 51.2433489,18.1161604 50.971275,19.390216 C50.6985045,20.6695604 50.3990375,21.945316 50.1371779,23.2261715 C49.9482118,24.1494604 49.7936032,25.0774715 49.6387625,26.0051049 C49.5475295,26.550616 49.2882235,26.7553715 48.611985,26.7474382 C47.8846746,26.7391271 47.1527214,26.7553715 46.4333039,26.6864271 C46.1716765,26.6613049 45.7791192,26.4546604 45.7234044,26.2740826 C45.3997942,25.2300938 45.159292,24.168916 44.8902359,23.1137826 C44.6443943,22.1491271 44.3890348,21.1861715 44.1534076,20.2201938 C43.7053677,18.3832493 43.2895959,16.541016 42.8211273,14.7076604 C42.4264807,13.1644382 41.9698514,11.6317938 41.5531511,10.0921604 C41.3665065,9.40271598 41.187987,8.71081598 41.0477714,8.01438264 C40.9402882,7.48077153 41.1580403,7.23880487 41.8029392,7.24541598 C42.7904841,7.25542709 43.7840648,7.29660487 44.7586097,7.41541598 C44.9967905,7.44450487 45.2950968,7.80754931 45.3522045,8.05027153 C45.6591002,9.35738264 45.8773166,10.677716 46.1656407,11.9880382 C46.5890732,13.912816 47.0463989,15.8328715 47.4877066,17.7551938 C47.5320463,17.9482382 47.5659395,18.1427938 47.7179945,18.3564271 C47.7525841,18.2009715 47.7911202,18.0458938 47.8217633,17.8900604 C48.467823,14.6139715 49.1194541,11.3386382 49.751585,8.06084931 C49.8435144,7.58598264 49.9382296,7.25618264 50.713594,7.34552709 C51.4439222,7.42977153 52.2000186,7.36706042 52.944972,7.36857153 C53.3078147,7.36951598 53.4663697,7.50494931 53.5246381,7.81038264 C54.1135901,10.8960715 54.7088099,13.9811938 55.3346729,17.0619715 C55.4614241,17.6862493 55.7249087,18.2922049 56.0538582,18.8981604 C56.17202,18.3877826 56.3178071,17.8804271 56.4039329,17.3662715 C56.9302057,14.223916 57.4413891,11.0798604 57.9616261,7.93674931 C58.0728235,7.26411598 58.2935935,7.12490487 59.1077261,7.15002709 C59.8749654,7.17344931 60.6431333,7.17326042 61.4103726,7.19800487 C62.0791825,7.21934931 62.27047,7.36158264 62.1673976,7.8893382 C61.8321801,9.60747153 61.4247656,11.3163493 61.1016197,13.0359938 C60.5393645,16.0274271 59.7630715,18.980516 58.9032063,21.9237826 C58.5262028,23.2138938 58.3832014,24.5491493 58.1310919,25.8634382 C57.9908763,26.594816 57.69907,26.7861604 56.805776,26.7854049 C56.2648781,26.7848382 55.7230516,26.809016 55.1826179,26.8354604 C54.4072535,26.873616 53.9803388,26.5987826 53.8788914,26.010016 C53.452441,23.5370826 53.0276156,21.0637715 52.5809686,18.5932938 C52.3964133,17.5719715 52.1584646,16.5572604 51.9448912,15.5395271 C51.8856942,15.5480271 51.8264972,15.5565271 51.7673003,15.5650271 Z M149.112699,12.0518638 C149.911045,10.8837749 150.666677,9.77971931 151.42022,8.6749082 C151.626133,8.37325264 151.77192,8.03023042 152.045155,7.77787487 C152.279157,7.56159709 152.637357,7.34777487 152.972342,7.30716376 C153.849386,7.20119709 154.743608,7.18646376 155.631563,7.14377487 C156.149943,7.11865264 156.444999,7.32208598 156.445231,7.75086376 C156.447089,10.4961749 156.427124,13.2412971 156.444303,15.9862304 C156.454517,17.6135082 156.540179,19.2404082 156.555268,20.8674971 C156.571286,22.6252971 156.553643,24.3830971 156.530429,26.1407082 C156.524857,26.5753415 156.162711,26.8080526 155.662206,26.8114526 C154.694394,26.8180638 153.725652,26.785386 152.758072,26.7553526 C152.2708,26.7402415 152.174227,26.436886 152.180031,26.1271082 C152.212763,24.4033082 152.2903,22.679886 152.299353,20.956086 C152.310264,18.8184304 152.269407,16.6807749 152.251532,14.5431193 C152.24921,14.2558193 152.251299,13.9687082 152.251299,13.6815971 C152.187227,13.6712082 152.123155,13.6606304 152.058851,13.6502415 C151.601061,14.3557415 151.126789,15.0546304 150.690124,15.7690082 C150.303138,16.4014082 149.977671,17.0589304 149.581399,17.6871749 C149.478095,17.8507526 149.212289,18.0451193 149.021001,18.0453082 C148.828785,18.0453082 148.564604,17.8524526 148.45596,17.6896304 C147.646935,16.4771526 146.870642,15.2503193 146.078795,14.030286 C145.990116,13.8935304 145.868704,13.7709415 145.762614,13.6417415 C145.68972,13.6513749 145.616362,13.6608193 145.543469,13.6700749 C145.543469,14.7299304 145.540451,15.789786 145.544165,16.8496415 C145.552058,19.349586 145.558094,21.8495304 145.57713,24.3494749 C145.581541,24.940886 145.634237,25.5322971 145.662559,26.1237082 C145.683452,26.5564526 145.424843,26.7498749 144.893231,26.7553526 C144.04683,26.7642304 143.200893,26.7986082 142.354492,26.8178749 C141.833791,26.8297749 141.560556,26.6259638 141.565432,26.1941638 C141.575878,25.2905193 141.608378,24.386686 141.594218,23.4832304 C141.537342,19.8484415 141.441002,16.2142193 141.411519,12.5792415 C141.398519,10.9534749 141.515288,9.32695264 141.558931,7.70043042 C141.571003,7.2588082 141.841684,7.07709709 142.352867,7.07823042 C143.100142,7.07993042 143.848114,7.09995264 144.594692,7.0786082 C145.240984,7.06009709 145.61613,7.29016376 145.937651,7.74444153 C146.943303,9.16601931 148.006992,10.5603971 149.112699,12.0518638 Z M81.974499,15.8441293 C82.7224703,15.8441293 83.4163517,15.9157182 84.0788937,15.8290182 C85.3988703,15.6563738 86.544506,15.2164515 86.8163478,14.0030293 C86.9198845,13.5421404 86.9105987,13.0508404 86.8504732,12.5820182 C86.7169898,11.5425626 85.7071589,10.2605738 83.973732,10.2991071 C83.5314957,10.3089293 83.0894915,10.3380182 82.6472553,10.3351849 C82.2748946,10.3329182 82.1797152,10.4766626 82.1671793,10.7575404 C82.1172682,11.8727404 82.0299816,12.9868071 81.9791419,14.1020071 C81.9529095,14.6703738 81.974499,15.2400626 81.974499,15.8441293 Z M81.9018376,18.6215515 C81.9018376,20.2246515 81.8890696,21.7659849 81.9064805,23.3069404 C81.916927,24.2268293 81.982624,25.1461515 82.0079279,26.0660404 C82.0218566,26.5796293 81.8626051,26.6786071 81.2188669,26.6876738 C80.4727528,26.6982515 79.7273351,26.7520849 78.981221,26.7596404 C78.0143369,26.7694626 77.7726739,26.5584738 77.7863705,25.7653293 C77.7956563,25.2243515 77.8202637,24.6833738 77.8249066,24.1422071 C77.8462639,21.4947404 77.8708713,18.8472738 77.8796928,16.1998071 C77.8892107,13.3883849 77.8866571,10.5769626 77.8780678,7.76554042 C77.8766749,7.38719598 78.0965163,7.20189598 78.526681,7.20586264 C80.7250944,7.22607376 82.9339544,7.15826264 85.1189034,7.31126264 C89.0467973,7.58628487 91.4450876,10.5405071 91.0304766,13.1568071 C90.741456,14.9820404 89.9094482,16.504296 88.1177529,17.641596 C87.8029642,17.8414404 87.7825355,18.0033182 87.9085902,18.2979849 C89.0061719,20.8566738 90.0805391,23.4219738 91.1539777,25.9876515 C91.3670869,26.496896 91.1196203,26.7930738 90.4554533,26.8095071 C89.5092302,26.8331182 88.5618463,26.8259404 87.6151589,26.835196 C87.0949219,26.840296 86.8177407,26.6313849 86.6580249,26.2296182 C85.7194626,23.8702071 84.7449177,21.5202404 83.8214448,19.1570515 C83.645711,18.7071182 83.3778157,18.5473182 82.8273998,18.6162626 C82.5762189,18.6476182 82.3141271,18.6215515 81.9018376,18.6215515 Z M117.503344,15.6817038 C118.124332,15.6817038 118.805213,15.6800038 119.486095,15.6820815 C120.223155,15.6845371 120.839268,15.4476704 121.282897,14.9864038 C122.084726,14.1520815 122.312925,13.1864815 122.108173,12.1525038 C121.995815,11.5847038 121.927332,10.9483371 121.236468,10.6474371 C120.108011,10.1557593 118.873928,10.0626371 117.503344,10.2156371 L117.503344,15.6817038 Z M117.337824,18.5890815 C117.337824,19.0851038 117.324128,19.5425926 117.340378,19.9995149 C117.409325,21.9380815 117.47804,23.8764593 117.566719,25.8142704 C117.59713,26.471226 117.424879,26.6297038 116.613532,26.6336704 C115.846757,26.6372593 115.079286,26.6570926 114.313671,26.6944926 C113.700576,26.7243371 113.385788,26.4708482 113.377895,25.9704815 C113.343537,23.8670149 113.282019,21.7641149 113.24534,19.6606482 C113.23559,19.1026704 113.303144,18.5439371 113.293626,17.9859593 C113.244411,15.0935038 113.182428,12.201426 113.123464,9.30915931 C113.112785,8.78310376 113.090267,8.25685931 113.08516,7.73061487 C113.082142,7.43878153 113.19775,7.18151487 113.622111,7.19681487 C116.343083,7.29522598 119.067769,7.35718153 121.782241,7.52907042 C123.91844,7.66450376 125.063611,8.86073709 125.758885,10.3737371 C126.402856,11.7758593 126.600411,13.2372926 126.057192,14.6807815 C125.631438,15.8127926 125.016021,16.8945593 123.761742,17.6282038 C123.642419,17.6979038 123.533311,17.9037926 123.571847,18.0099482 C124.434498,20.3890038 125.317113,22.7633371 126.200425,25.1376704 C126.32323,25.4678482 126.488517,25.7880149 126.599483,26.1204593 C126.74852,26.5671815 126.518928,26.8450371 125.956673,26.8508926 C125.027396,26.8607149 124.097423,26.8321926 123.167915,26.8138704 C122.675535,26.8042371 122.427372,26.5894704 122.287157,26.2011149 C121.496238,24.0098149 120.683267,21.8236149 119.864955,19.6387371 C119.741918,19.3100704 119.576399,18.9872593 119.378147,18.6844704 C119.304093,18.5711371 119.078448,18.4532704 118.926161,18.4566704 C118.427049,18.4683815 117.930026,18.5348704 117.337824,18.5890815 Z M71.7372282,16.9152993 C71.7372282,16.3068882 71.7518533,15.6980993 71.7339781,15.0898771 C71.69846,13.8749438 71.6928885,12.657366 71.5821553,11.4465882 C71.5074046,10.6243549 70.9681317,10.1851882 70.0931771,10.0212326 C68.6592172,9.75244376 67.6192075,10.280766 67.2403468,11.5495326 C67.0704167,12.1186549 67.0049518,12.7200771 66.9979874,13.3075215 C66.9740765,15.280466 66.9606121,17.2545438 67.0177197,19.2265438 C67.0511486,20.3742326 67.1769712,21.5239993 67.3571158,22.6628104 C67.4778312,23.4266771 68.1960879,23.8639549 69.0529352,24.0483104 C69.9116397,24.2332326 70.690022,24.0503882 71.2357949,23.4094882 C71.7794786,22.7708549 71.9391944,22.0587438 71.898569,21.3028104 C71.8198718,19.8408104 71.7107636,16.915866 71.7372282,16.9152993 Z M62.6975007,17.9704326 C62.6975007,16.8042326 62.7000543,15.6378438 62.6965722,14.4714549 C62.6935543,13.5687549 62.6696433,12.6656771 62.6777684,11.763166 C62.6970365,9.54466598 64.9936472,7.40096598 68.1480339,7.28517709 C69.5313861,7.23436598 70.8871131,7.25401042 72.1971075,7.69242153 C74.2562339,8.38186598 75.3164402,9.68312153 75.585032,11.4169326 C75.7538015,12.5054993 75.7779446,13.6101215 75.8341237,14.7086993 C75.9216423,16.4162549 76.0409649,18.1251326 76.0309826,19.833066 C76.0247147,20.9265438 75.9265174,22.0383438 75.6597827,23.1074549 C75.2862614,24.6072326 74.2471802,25.755866 72.4896102,26.4515438 C70.9309885,27.0686438 69.3303485,27.3332771 67.6185111,27.0931993 C65.2919536,26.7667993 63.3899894,25.1975104 62.9902356,23.0844104 C62.7580906,21.8581438 62.7980195,20.5971215 62.7311618,19.3512104 C62.7065544,18.8918326 62.707483,17.9704326 62.6975007,17.9704326 Z M97.982988,18.6752338 C97.2633384,19.5241004 96.6121716,20.2670004 96.6734579,21.3225115 C96.758423,22.7805449 96.6699758,24.2451893 96.6521006,25.7070004 C96.649547,25.9042004 96.6948153,26.1303004 96.5931358,26.2902893 C96.4759025,26.474456 96.2309895,26.7173671 96.0218268,26.7307782 C95.1176219,26.7893338 94.2062206,26.7751671 93.2976049,26.7829115 C92.8091718,26.7870671 92.5319906,26.5885449 92.5238655,26.1869671 C92.5039011,25.185856 92.4934545,24.184556 92.486258,23.1834449 C92.4623471,19.778156 92.4217217,16.3728671 92.4279896,12.9675782 C92.4314718,11.2575671 92.5231691,9.54755598 92.5735446,7.83773376 C92.5837589,7.49055598 92.8298327,7.32943376 93.2240149,7.31224487 C94.0915409,7.27484487 94.9599955,7.24178931 95.82845,7.22460042 C96.3858302,7.21383376 96.6924938,7.45825598 96.6917974,7.86436709 C96.6901724,8.60235598 96.6920295,9.34034487 96.6920295,10.0783338 C96.6922617,11.6391226 96.6920295,13.1999115 96.6920295,14.7605115 C96.742405,14.7777004 96.7927805,14.7947004 96.8429238,14.8117004 C97.3246247,14.1485115 97.8376653,13.4987338 98.2819908,12.8193004 C99.3157327,11.2379226 100.337171,9.65068931 101.320073,8.04815598 C101.700559,7.42765598 102.207331,7.12052264 103.082518,7.18134487 C103.846043,7.23461153 104.618389,7.20042264 105.385629,7.22686709 C106.006385,7.24821153 106.214851,7.50000042 105.924902,7.93614487 C104.715426,9.75684487 103.477861,11.5648893 102.251439,13.3780338 C101.803631,14.0400893 101.339573,14.6959115 100.926819,15.3721338 C100.836747,15.519656 100.87389,15.7614338 100.953748,15.9278449 C101.363716,16.7852115 101.789238,17.6382338 102.242153,18.4814338 C103.374556,20.5898115 104.520192,22.6932782 105.671864,24.794856 C105.852008,25.1237115 106.104118,25.4259338 106.300048,25.7498782 C106.677516,26.374156 106.393835,26.7808338 105.542791,26.8201226 C104.716122,26.8582782 103.887365,26.8665893 103.059536,26.8936004 C102.54487,26.9106004 102.226831,26.7066004 102.042508,26.3305226 C101.443806,25.109356 100.858336,23.883656 100.236884,22.6700449 C99.6544323,21.5329338 99.0369265,20.4075338 98.4238315,19.2810004 C98.3193662,19.0885226 98.1601147,18.9156893 97.982988,18.6752338 Z M162.458763,16.2663526 C162.489638,16.2663526 162.527942,19.2345526 162.558353,20.4169971 C162.579014,21.2295971 162.414887,22.071286 162.95416,22.8275971 C163.312824,23.3304193 163.713739,23.9095526 164.463799,23.946386 C166.273602,24.0355415 167.47797,23.6179082 167.55806,21.8712526 C167.613543,20.6580193 167.557828,19.4398749 167.513489,18.2249415 C167.430845,15.959786 167.348201,13.6942526 167.210307,11.4311749 C167.131378,10.1350193 165.192735,9.38059709 163.848151,10.0785415 C162.899374,10.5709749 162.449941,11.2726971 162.455745,12.1867304 C162.465727,13.7473304 162.458763,14.7057526 162.458763,16.2663526 Z M158.424779,16.5136082 C158.424779,15.1813749 158.419207,13.8491415 158.426636,12.5169082 C158.4336,11.2492749 158.836372,10.0740082 159.774238,9.0506082 C161.29177,7.39518598 163.473933,7.12526376 165.795151,7.21479709 C167.299915,7.27278598 168.599927,7.75407487 169.730242,8.5712082 C170.672982,9.2529082 171.251256,10.1178304 171.310221,11.1017526 C171.475044,13.858586 171.529365,16.6199526 171.60992,19.3798082 C171.63267,20.151986 171.52333,20.9300193 171.598777,21.697286 C171.781475,23.5512304 170.618661,24.830386 168.97577,25.9015749 C166.357406,27.6085638 163.071393,27.0069526 161.105125,26.0596749 C159.891007,25.4748749 159.078731,24.4603526 158.847979,23.2994415 C158.613977,22.1207749 158.552923,20.9154749 158.489779,19.7192415 C158.4336,18.652586 158.442422,16.5136082 158.424779,16.5136082 Z M132.184474,10.2946871 C132.155456,11.9346204 132.119706,13.4931426 132.118313,15.0518538 C132.118313,15.1564982 132.372976,15.3457649 132.519924,15.3529426 C133.76956,15.4139538 135.021519,15.4651426 136.27278,15.467976 C136.766785,15.4692982 136.992894,15.5915093 137.006591,15.9876093 C137.028877,16.612076 137.074609,17.2363538 137.083663,17.8608204 C137.091556,18.4235204 136.783731,18.6607649 136.074528,18.6579315 C135.022911,18.653776 133.971294,18.6380982 132.91991,18.6284649 C132.681264,18.6261982 132.442155,18.6280871 132.128759,18.6280871 L132.128759,23.6702871 C132.496013,23.6702871 132.793855,23.6700982 133.091465,23.670476 C135.133877,23.6723649 137.176521,23.6829426 139.218933,23.6714204 C139.783045,23.6682093 140.038869,23.8395315 140.025869,24.3085426 C140.009619,24.9005204 140.041887,25.4930649 140.036315,26.0854204 C140.031208,26.6422649 139.88635,26.740676 139.221022,26.7472871 C135.824972,26.7805315 132.429387,26.8226538 129.033337,26.8555204 C128.059025,26.8649649 127.901166,26.7384093 127.897916,25.9471538 C127.879345,21.2101982 127.86588,16.4734315 127.851719,11.736476 C127.848005,10.4701649 127.844059,9.20385376 127.848237,7.93754264 C127.851023,7.17367598 127.934595,7.06638709 128.890568,7.07110931 C131.154214,7.08263153 133.417396,7.14553153 135.681043,7.17518709 C136.852911,7.19048709 138.025243,7.18368709 139.197575,7.17858709 C139.898421,7.17575376 140.104798,7.32270931 140.112691,7.8889982 C140.121048,8.51403153 140.125459,9.13925376 140.111995,9.7640982 C140.102012,10.2223426 139.81067,10.4588315 139.229379,10.4408871 C137.593453,10.3902649 135.957295,10.3377538 134.320905,10.2973315 C133.657202,10.2810871 132.992107,10.2946871 132.184474,10.2946871 Z M192.092424,18.6979382 L192.092424,23.8215493 C193.455115,23.8215493 194.76186,23.8183382 196.068372,23.8224938 C197.118596,23.8258938 198.169052,23.8445938 199.219276,23.8438382 C199.768299,23.8434604 200.039445,24.0059049 199.995801,24.4932382 C199.948676,25.0170271 199.995105,25.5461049 199.961676,26.0714049 C199.925694,26.6393938 199.661048,26.8450938 198.979006,26.8454715 C195.905174,26.8477382 192.831574,26.8439604 189.757509,26.8352715 C189.397917,26.8341382 189.033681,26.8093938 188.67966,26.7589604 C188.145958,26.6826493 187.903831,26.4104604 187.909635,25.9601493 C187.929599,24.4467715 187.935635,22.9332049 187.937957,21.4198271 C187.944457,17.4548604 187.947242,13.4900826 187.948403,9.52530487 C187.948635,8.98300487 187.936564,8.44089376 187.922171,7.89878264 C187.911956,7.50287153 188.089779,7.28470487 188.627659,7.28697153 C192.063638,7.30246042 195.499849,7.29641598 198.935827,7.32097153 C199.901551,7.32796042 199.970962,7.40918264 199.980944,8.17720487 C199.987212,8.65320487 199.928247,9.12958264 199.920122,9.60596042 C199.911533,10.1148271 199.604869,10.3511271 198.987131,10.3643493 C197.895818,10.3881493 196.805432,10.4389604 195.714351,10.4535049 C194.508125,10.4693715 193.301435,10.4570938 191.975655,10.4570938 C192.068281,12.1812715 192.155103,13.7977826 192.245408,15.4872049 C193.469044,15.4872049 194.613055,15.481916 195.757065,15.488716 C196.823308,15.4949493 196.92313,15.5816493 196.933576,16.4541271 C196.937755,16.8160382 196.941469,17.1781382 196.933809,17.5400493 C196.918487,18.2689715 196.649199,18.499416 195.727119,18.5417271 C194.67852,18.5898938 193.628063,18.6199271 192.578768,18.6595938 C192.441338,18.6646938 192.304605,18.6807493 192.092424,18.6979382 Z M26.7384911,10.1500549 C26.7384911,11.7865882 26.7394196,13.3275438 26.7375625,14.8684993 C26.7370982,15.1858326 26.8958854,15.3458215 27.3139786,15.3354326 C28.3637384,15.3095549 29.4137304,15.2985993 30.4639545,15.285566 C31.4575352,15.2730993 31.8382531,15.5471771 31.8635569,16.3584549 C31.8795749,16.8652438 31.8298958,17.3750549 31.7769668,17.8810882 C31.7326271,18.3070326 31.3730344,18.4573882 30.8908692,18.4598438 C29.6786079,18.4656993 28.4663465,18.4704215 27.2543173,18.4753326 C27.0978516,18.4760882 26.9413858,18.4755215 26.7670449,18.4755215 L26.7670449,23.6556104 C28.9044042,23.6913104 30.9535484,23.726066 33.0029247,23.760066 C33.3868926,23.7664882 33.7910571,23.7130326 34.1473997,23.7959549 C34.4041521,23.8558326 34.7509768,24.0741882 34.7909057,24.2600549 C34.9120854,24.8214326 34.9397107,25.4016993 34.9350678,25.9742215 C34.9301927,26.5593993 34.6792439,26.7241104 33.9753802,26.7244882 C30.7023674,26.726566 27.429819,26.7295882 24.1568062,26.7312882 C23.9750366,26.7314771 23.7916421,26.733366 23.6119618,26.7144771 C22.8294009,26.6319326 22.5865772,26.4373771 22.5761307,25.7860882 C22.560577,24.8163326 22.5905237,23.8460104 22.5988809,22.8758771 C22.6285955,19.4583104 22.6603993,16.0407438 22.6850067,12.6231771 C22.6963818,11.0450104 22.6901139,9.46703264 22.6975425,7.88886598 C22.6996318,7.4566882 22.9700808,7.19602153 23.5100501,7.19602153 C25.6288378,7.19564376 27.7476255,7.20187709 29.8664132,7.22076598 C31.1381037,7.23209931 32.4100263,7.2934882 33.6814846,7.28687709 C34.2028823,7.28404376 34.516046,7.41305487 34.5596892,7.83446598 C34.6207434,8.42021042 34.6899226,9.01029931 34.6616009,9.59547709 C34.6397793,10.0431438 34.2386327,10.2163549 33.4823042,10.2084215 C31.8050563,10.1904771 30.1280406,10.1683771 28.4510249,10.1508104 C27.9289308,10.1455215 27.4068366,10.1500549 26.7384911,10.1500549 Z M219.484168,14.8731082 C219.999762,13.5336971 220.475659,12.3197082 220.932985,11.101186 C221.339703,10.0171526 221.720421,8.92669709 222.12296,7.84153042 C222.284765,7.4050082 222.687537,7.20119709 223.22681,7.2180082 C224.153069,7.24671931 225.081184,7.28015264 226.002568,7.3591082 C226.556234,7.4067082 226.521876,7.76427487 226.384911,8.07934153 C225.912728,9.16375264 225.436366,10.2472193 224.929129,11.3210526 C224.131943,13.008586 223.307364,14.6876193 222.497178,16.371186 C221.804922,17.8101415 221.45624,19.2855526 221.58067,20.8469082 C221.720885,22.6011193 221.739457,24.3613749 221.832547,26.1184193 C221.855297,26.5471971 221.688849,26.7028415 221.14029,26.6890526 C220.235621,26.6665749 219.328631,26.7211638 218.422336,26.7245638 C217.665311,26.7273971 217.446631,26.598386 217.435024,25.9941304 C217.402523,24.3343638 217.420398,22.6738415 217.425041,21.0136971 C217.427131,20.2570082 217.544132,19.4895526 217.423648,18.7470304 C217.320112,18.1083971 216.972823,17.4926193 216.699124,16.8764638 C215.697418,14.620186 214.685962,12.3667415 213.668703,10.1149971 C213.376432,9.46786376 213.061411,8.82734153 212.740587,8.18908598 C212.443905,7.59824153 212.574371,7.37856376 213.340914,7.37913042 C214.348191,7.37988598 215.355468,7.43655264 216.362746,7.46923042 C216.795696,7.4832082 217.004859,7.6855082 217.098645,8.01398598 C217.380702,9.00414153 217.633275,10.0016638 217.977082,10.9778415 C218.420944,12.2388638 218.941645,13.4817526 219.484168,14.8731082 Z M177.051724,10.239626 C175.873124,10.239626 174.789007,10.2400038 173.704657,10.2394371 C172.814845,10.2390593 172.5502,10.0307149 172.573879,9.29348153 C172.58804,8.85015931 172.641665,8.40645931 172.707362,7.96597042 C172.803238,7.32223709 173.009847,7.1792482 173.81098,7.19133709 C175.448531,7.21645931 177.08585,7.28275931 178.722704,7.27331487 C180.905796,7.26065931 183.088656,7.20248153 185.270819,7.14335931 C186.361669,7.11370376 186.604492,7.29239264 186.57176,8.17733709 C186.558528,8.53792598 186.594046,8.89945931 186.595206,9.26061487 C186.597064,9.90208153 186.368169,10.142726 185.586072,10.1844704 C184.517741,10.2417038 183.445231,10.2449149 182.37481,10.2745704 C182.075343,10.2826926 181.776572,10.302526 181.39864,10.3206593 C181.39864,11.1731149 181.387265,11.9877926 181.403515,12.8020926 C181.410712,13.1626815 181.511462,13.5228926 181.50473,13.8825371 C181.476873,15.344726 181.389586,16.8069149 181.388658,18.2689149 C181.387265,20.8347815 181.430676,23.4006482 181.462016,25.966326 C181.46898,26.5369593 181.392836,26.6274371 180.691062,26.6510482 C179.923823,26.6767371 179.155655,26.6893926 178.388183,26.6895815 C177.619319,26.6897704 177.436389,26.6066593 177.367442,25.971426 C177.277369,25.1388038 177.309173,24.2973038 177.291762,23.4595815 C177.211208,19.6113482 177.130421,15.762926 177.053349,11.9145038 C177.042671,11.3895815 177.051724,10.8644704 177.051724,10.239626 Z M205.752696,23.7848293 C206.802224,23.7848293 207.827144,23.7825626 208.851833,23.785396 C210.064094,23.788796 211.27682,23.7804849 212.488384,23.807496 C213.391661,23.8277071 213.55718,24.0018626 213.566002,24.7370182 C213.571109,25.1467182 213.63402,25.5564182 213.631699,25.9659293 C213.628217,26.6398849 213.357768,26.8546515 212.532028,26.8431293 C210.936495,26.8208404 209.341426,26.7743738 207.745894,26.7594515 C206.153379,26.7445293 204.559935,26.7418849 202.96742,26.7607738 C201.787891,26.7747515 201.565264,26.6170293 201.558764,25.6448182 C201.527657,21.090896 201.489585,16.5371626 201.469388,11.9832404 C201.463353,10.6519515 201.505835,9.32028487 201.531371,7.98899598 C201.542282,7.43045153 201.643265,7.37567376 202.310218,7.3851182 C203.158244,7.39682931 204.006966,7.36830709 204.855456,7.37132931 C205.579284,7.37397376 205.690714,7.46577376 205.684446,8.07286264 C205.657749,10.6706515 205.596463,13.2682515 205.596927,15.8658515 C205.597391,18.430396 205.656821,20.9949404 205.692339,23.5594849 C205.692803,23.6065182 205.716714,23.6535515 205.752696,23.7848293 Z" id="WWR"></path>
            </g>
        </g>
    </g>
</svg>